<svg width="634" height="184" viewBox="0 0 634 184" fill="none" xmlns="http://www.w3.org/2000/svg">
<rect width="634" height="184" rx="14" fill="#292A32"/>
<rect x="40.5" y="58.5" width="284" height="66" rx="13.5" stroke="white"/>
<path d="M76.44 98V85.4H84.198V86.768H77.952V90.98H83.694V92.348H77.952V96.632H84.288V98H76.44ZM86.6366 98V89.198H88.0226V90.296H88.2746C88.4426 89.984 88.7186 89.696 89.1026 89.432C89.4866 89.168 90.0266 89.036 90.7226 89.036C91.4066 89.036 91.9586 89.186 92.3786 89.486C92.8106 89.786 93.1226 90.152 93.3146 90.584H93.5666C93.7706 90.152 94.0766 89.786 94.4846 89.486C94.9046 89.186 95.4866 89.036 96.2306 89.036C96.8186 89.036 97.3346 89.156 97.7786 89.396C98.2226 89.636 98.5706 89.984 98.8226 90.44C99.0866 90.884 99.2186 91.418 99.2186 92.042V98H97.7966V92.168C97.7966 91.58 97.6226 91.118 97.2746 90.782C96.9386 90.434 96.4646 90.26 95.8526 90.26C95.2046 90.26 94.6706 90.47 94.2506 90.89C93.8426 91.31 93.6386 91.916 93.6386 92.708V98H92.2166V92.168C92.2166 91.58 92.0426 91.118 91.6946 90.782C91.3586 90.434 90.8846 90.26 90.2726 90.26C89.6246 90.26 89.0906 90.47 88.6706 90.89C88.2626 91.31 88.0586 91.916 88.0586 92.708V98H86.6366ZM104.823 98.252C104.211 98.252 103.653 98.144 103.149 97.928C102.645 97.712 102.249 97.4 101.961 96.992C101.673 96.584 101.529 96.086 101.529 95.498C101.529 94.898 101.673 94.406 101.961 94.022C102.249 93.626 102.645 93.332 103.149 93.14C103.653 92.936 104.217 92.834 104.841 92.834H107.811V92.186C107.811 91.562 107.625 91.07 107.253 90.71C106.893 90.35 106.353 90.17 105.633 90.17C104.925 90.17 104.373 90.344 103.977 90.692C103.581 91.028 103.311 91.484 103.167 92.06L101.835 91.628C101.979 91.136 102.207 90.692 102.519 90.296C102.831 89.888 103.245 89.564 103.761 89.324C104.289 89.072 104.919 88.946 105.651 88.946C106.779 88.946 107.655 89.24 108.279 89.828C108.903 90.404 109.215 91.22 109.215 92.276V96.254C109.215 96.614 109.383 96.794 109.719 96.794H110.529V98H109.287C108.891 98 108.573 97.892 108.333 97.676C108.093 97.448 107.973 97.148 107.973 96.776V96.686H107.757C107.625 96.914 107.445 97.154 107.217 97.406C107.001 97.646 106.701 97.844 106.317 98C105.933 98.168 105.435 98.252 104.823 98.252ZM104.985 97.028C105.825 97.028 106.503 96.782 107.019 96.29C107.547 95.786 107.811 95.084 107.811 94.184V93.986H104.895C104.331 93.986 103.863 94.112 103.491 94.364C103.131 94.604 102.951 94.97 102.951 95.462C102.951 95.954 103.137 96.338 103.509 96.614C103.893 96.89 104.385 97.028 104.985 97.028ZM112.476 98V89.198H113.898V98H112.476ZM113.196 87.83C112.884 87.83 112.62 87.728 112.404 87.524C112.2 87.32 112.098 87.062 112.098 86.75C112.098 86.426 112.2 86.162 112.404 85.958C112.62 85.754 112.884 85.652 113.196 85.652C113.508 85.652 113.766 85.754 113.97 85.958C114.174 86.162 114.276 86.426 114.276 86.75C114.276 87.062 114.174 87.32 113.97 87.524C113.766 87.728 113.508 87.83 113.196 87.83ZM116.889 98V85.4H118.311V98H116.889Z" fill="white"/>
<rect x="345" y="58" width="249" height="68" rx="14" fill="#B9FF66"/>
<path d="M386.317 99.28C385.303 99.28 384.397 99.1 383.597 98.74C382.797 98.38 382.163 97.84 381.697 97.12C381.243 96.3867 381.017 95.4733 381.017 94.38V93.96H382.677V94.38C382.677 95.54 383.017 96.4067 383.697 96.98C384.377 97.54 385.25 97.82 386.317 97.82C387.41 97.82 388.243 97.5733 388.817 97.08C389.39 96.5867 389.677 95.9667 389.677 95.22C389.677 94.7 389.543 94.2867 389.277 93.98C389.023 93.6733 388.663 93.4267 388.197 93.24C387.73 93.04 387.183 92.8667 386.557 92.72L385.517 92.46C384.703 92.2467 383.983 91.9867 383.357 91.68C382.73 91.3733 382.237 90.9733 381.877 90.48C381.53 89.9733 381.357 89.3267 381.357 88.54C381.357 87.7533 381.55 87.0733 381.937 86.5C382.337 85.9267 382.89 85.4867 383.597 85.18C384.317 84.8733 385.143 84.72 386.077 84.72C387.023 84.72 387.87 84.8867 388.617 85.22C389.377 85.54 389.97 86.02 390.397 86.66C390.837 87.2867 391.057 88.08 391.057 89.04V89.88H389.397V89.04C389.397 88.36 389.25 87.8133 388.957 87.4C388.677 86.9867 388.283 86.68 387.777 86.48C387.283 86.28 386.717 86.18 386.077 86.18C385.157 86.18 384.417 86.3867 383.857 86.8C383.297 87.2 383.017 87.7733 383.017 88.52C383.017 89.0133 383.137 89.4133 383.377 89.72C383.617 90.0267 383.957 90.28 384.397 90.48C384.837 90.6667 385.363 90.8333 385.977 90.98L387.017 91.24C387.83 91.4133 388.557 91.6533 389.197 91.96C389.85 92.2533 390.37 92.66 390.757 93.18C391.143 93.6867 391.337 94.3533 391.337 95.18C391.337 96.0067 391.13 96.7267 390.717 97.34C390.303 97.9533 389.717 98.4333 388.957 98.78C388.21 99.1133 387.33 99.28 386.317 99.28ZM397.722 99.18C397.016 99.18 396.362 99.0267 395.762 98.72C395.176 98.4133 394.709 97.96 394.362 97.36C394.029 96.7467 393.862 96.0067 393.862 95.14V89.22H395.442V95.02C395.442 95.9933 395.682 96.7 396.162 97.14C396.656 97.58 397.316 97.8 398.142 97.8C399.076 97.8 399.842 97.4933 400.442 96.88C401.042 96.2667 401.342 95.3533 401.342 94.14V89.22H402.922V99H401.382V97.34H401.102C400.889 97.8067 400.522 98.2333 400.002 98.62C399.482 98.9933 398.722 99.18 397.722 99.18ZM411.648 99.28C410.635 99.28 409.842 99.0867 409.268 98.7C408.708 98.3133 408.302 97.8733 408.048 97.38H407.768V99H406.228V85H407.808V90.76H408.088C408.248 90.4533 408.475 90.1667 408.768 89.9C409.062 89.62 409.442 89.3933 409.908 89.22C410.388 89.0333 410.968 88.94 411.648 88.94C412.502 88.94 413.275 89.1467 413.968 89.56C414.675 89.96 415.235 90.54 415.648 91.3C416.062 92.0467 416.268 92.94 416.268 93.98V94.24C416.268 95.28 416.055 96.18 415.628 96.94C415.215 97.7 414.655 98.28 413.948 98.68C413.255 99.08 412.488 99.28 411.648 99.28ZM411.228 97.88C412.242 97.88 413.062 97.56 413.688 96.92C414.328 96.2667 414.648 95.36 414.648 94.2V94.02C414.648 92.86 414.328 91.96 413.688 91.32C413.062 90.6667 412.242 90.34 411.228 90.34C410.228 90.34 409.402 90.6667 408.748 91.32C408.108 91.96 407.788 92.86 407.788 94.02V94.2C407.788 95.36 408.108 96.2667 408.748 96.92C409.402 97.56 410.228 97.88 411.228 97.88ZM423.039 99.28C421.826 99.28 420.799 99 419.959 98.44C419.133 97.88 418.633 96.9933 418.459 95.78L419.959 95.44C420.066 96.08 420.266 96.5867 420.559 96.96C420.853 97.32 421.213 97.58 421.639 97.74C422.079 97.8867 422.546 97.96 423.039 97.96C423.773 97.96 424.353 97.8133 424.779 97.52C425.206 97.2267 425.419 96.8333 425.419 96.34C425.419 95.8333 425.213 95.48 424.799 95.28C424.399 95.0667 423.846 94.8933 423.139 94.76L422.319 94.62C421.693 94.5133 421.119 94.3467 420.599 94.12C420.079 93.8933 419.666 93.5867 419.359 93.2C419.053 92.8133 418.899 92.3267 418.899 91.74C418.899 90.86 419.239 90.1733 419.919 89.68C420.599 89.1867 421.499 88.94 422.619 88.94C423.726 88.94 424.619 89.1933 425.299 89.7C425.993 90.1933 426.439 90.8933 426.639 91.8L425.159 92.18C425.039 91.4733 424.753 90.98 424.299 90.7C423.846 90.4067 423.286 90.26 422.619 90.26C421.953 90.26 421.426 90.3867 421.039 90.64C420.653 90.88 420.459 91.24 420.459 91.72C420.459 92.1867 420.639 92.5333 420.999 92.76C421.373 92.9733 421.866 93.1333 422.479 93.24L423.299 93.38C423.993 93.5 424.613 93.6667 425.159 93.88C425.719 94.08 426.159 94.3733 426.479 94.76C426.813 95.1467 426.979 95.6533 426.979 96.28C426.979 97.24 426.619 97.98 425.899 98.5C425.193 99.02 424.239 99.28 423.039 99.28ZM434.146 99.28C433.2 99.28 432.346 99.08 431.586 98.68C430.84 98.2667 430.246 97.68 429.806 96.92C429.38 96.16 429.166 95.26 429.166 94.22V94C429.166 92.9467 429.38 92.0467 429.806 91.3C430.246 90.54 430.84 89.96 431.586 89.56C432.346 89.1467 433.2 88.94 434.146 88.94C435.08 88.94 435.873 89.1133 436.526 89.46C437.193 89.8067 437.713 90.2667 438.086 90.84C438.473 91.4133 438.72 92.0267 438.826 92.68L437.286 93C437.22 92.52 437.06 92.08 436.806 91.68C436.566 91.28 436.226 90.96 435.786 90.72C435.346 90.48 434.806 90.36 434.166 90.36C433.513 90.36 432.926 90.5067 432.406 90.8C431.9 91.0933 431.493 91.5133 431.186 92.06C430.893 92.6067 430.746 93.26 430.746 94.02V94.2C430.746 94.96 430.893 95.6133 431.186 96.16C431.493 96.7067 431.9 97.1267 432.406 97.42C432.926 97.7133 433.513 97.86 434.166 97.86C435.14 97.86 435.88 97.6067 436.386 97.1C436.906 96.5933 437.226 95.9667 437.346 95.22L438.906 95.56C438.76 96.2 438.493 96.8067 438.106 97.38C437.72 97.9533 437.193 98.4133 436.526 98.76C435.873 99.1067 435.08 99.28 434.146 99.28ZM441.599 99V89.22H443.139V90.42H443.419C443.593 89.9933 443.859 89.68 444.219 89.48C444.579 89.28 445.053 89.18 445.639 89.18H446.799V90.62H445.539C444.833 90.62 444.259 90.82 443.819 91.22C443.393 91.6067 443.179 92.2133 443.179 93.04V99H441.599ZM449.139 99V89.22H450.719V99H449.139ZM449.939 87.7C449.592 87.7 449.299 87.5867 449.059 87.36C448.832 87.1333 448.719 86.8467 448.719 86.5C448.719 86.14 448.832 85.8467 449.059 85.62C449.299 85.3933 449.592 85.28 449.939 85.28C450.285 85.28 450.572 85.3933 450.799 85.62C451.025 85.8467 451.139 86.14 451.139 86.5C451.139 86.8467 451.025 87.1333 450.799 87.36C450.572 87.5867 450.285 87.7 449.939 87.7ZM459.461 99.28C458.448 99.28 457.654 99.0867 457.081 98.7C456.521 98.3133 456.114 97.8733 455.861 97.38H455.581V99H454.041V85H455.621V90.76H455.901C456.061 90.4533 456.288 90.1667 456.581 89.9C456.874 89.62 457.254 89.3933 457.721 89.22C458.201 89.0333 458.781 88.94 459.461 88.94C460.314 88.94 461.088 89.1467 461.781 89.56C462.488 89.96 463.048 90.54 463.461 91.3C463.874 92.0467 464.081 92.94 464.081 93.98V94.24C464.081 95.28 463.868 96.18 463.441 96.94C463.028 97.7 462.468 98.28 461.761 98.68C461.068 99.08 460.301 99.28 459.461 99.28ZM459.041 97.88C460.054 97.88 460.874 97.56 461.501 96.92C462.141 96.2667 462.461 95.36 462.461 94.2V94.02C462.461 92.86 462.141 91.96 461.501 91.32C460.874 90.6667 460.054 90.34 459.041 90.34C458.041 90.34 457.214 90.6667 456.561 91.32C455.921 91.96 455.601 92.86 455.601 94.02V94.2C455.601 95.36 455.921 96.2667 456.561 96.92C457.214 97.56 458.041 97.88 459.041 97.88ZM471.392 99.28C470.405 99.28 469.539 99.0733 468.792 98.66C468.045 98.2333 467.465 97.64 467.052 96.88C466.639 96.12 466.432 95.24 466.432 94.24V94C466.432 92.9867 466.639 92.1 467.052 91.34C467.465 90.58 468.039 89.9933 468.772 89.58C469.505 89.1533 470.345 88.94 471.292 88.94C472.212 88.94 473.025 89.14 473.732 89.54C474.439 89.9267 474.992 90.4867 475.392 91.22C475.792 91.9533 475.992 92.8133 475.992 93.8V94.52H468.012C468.052 95.5733 468.392 96.4 469.032 97C469.672 97.5867 470.472 97.88 471.432 97.88C472.272 97.88 472.919 97.6867 473.372 97.3C473.825 96.9133 474.172 96.4533 474.412 95.92L475.772 96.58C475.572 96.9933 475.292 97.4067 474.932 97.82C474.585 98.2333 474.125 98.58 473.552 98.86C472.992 99.14 472.272 99.28 471.392 99.28ZM468.032 93.22H474.392C474.339 92.3133 474.025 91.6067 473.452 91.1C472.892 90.5933 472.172 90.34 471.292 90.34C470.399 90.34 469.665 90.5933 469.092 91.1C468.519 91.6067 468.165 92.3133 468.032 93.22ZM487.485 99C486.925 99 486.491 98.8467 486.185 98.54C485.891 98.2333 485.745 97.8133 485.745 97.28V90.6H482.805V89.22H485.745V85.74H487.325V89.22H490.525V90.6H487.325V97.04C487.325 97.44 487.518 97.64 487.905 97.64H490.085V99H487.485ZM497.252 99.28C496.266 99.28 495.392 99.0733 494.632 98.66C493.886 98.2467 493.299 97.6667 492.872 96.92C492.459 96.16 492.252 95.2667 492.252 94.24V93.98C492.252 92.9667 492.459 92.08 492.872 91.32C493.299 90.56 493.886 89.9733 494.632 89.56C495.392 89.1467 496.266 88.94 497.252 88.94C498.239 88.94 499.106 89.1467 499.852 89.56C500.612 89.9733 501.199 90.56 501.612 91.32C502.039 92.08 502.252 92.9667 502.252 93.98V94.24C502.252 95.2667 502.039 96.16 501.612 96.92C501.199 97.6667 500.612 98.2467 499.852 98.66C499.106 99.0733 498.239 99.28 497.252 99.28ZM497.252 97.86C498.292 97.86 499.119 97.5333 499.732 96.88C500.359 96.2133 500.672 95.32 500.672 94.2V94.02C500.672 92.9 500.359 92.0133 499.732 91.36C499.119 90.6933 498.292 90.36 497.252 90.36C496.226 90.36 495.399 90.6933 494.772 91.36C494.146 92.0133 493.832 92.9 493.832 94.02V94.2C493.832 95.32 494.146 96.2133 494.772 96.88C495.399 97.5333 496.226 97.86 497.252 97.86ZM510.232 99V89.22H511.772V90.88H512.052C512.266 90.4133 512.626 89.9933 513.132 89.62C513.652 89.2333 514.412 89.04 515.412 89.04C516.146 89.04 516.799 89.1933 517.372 89.5C517.959 89.8067 518.426 90.26 518.772 90.86C519.119 91.46 519.292 92.2 519.292 93.08V99H517.712V93.2C517.712 92.2267 517.466 91.52 516.972 91.08C516.492 90.64 515.839 90.42 515.012 90.42C514.066 90.42 513.292 90.7267 512.692 91.34C512.106 91.9533 511.812 92.8667 511.812 94.08V99H510.232ZM526.978 99.28C525.991 99.28 525.125 99.0733 524.378 98.66C523.631 98.2333 523.051 97.64 522.638 96.88C522.225 96.12 522.018 95.24 522.018 94.24V94C522.018 92.9867 522.225 92.1 522.638 91.34C523.051 90.58 523.625 89.9933 524.358 89.58C525.091 89.1533 525.931 88.94 526.878 88.94C527.798 88.94 528.611 89.14 529.318 89.54C530.025 89.9267 530.578 90.4867 530.978 91.22C531.378 91.9533 531.578 92.8133 531.578 93.8V94.52H523.598C523.638 95.5733 523.978 96.4 524.618 97C525.258 97.5867 526.058 97.88 527.018 97.88C527.858 97.88 528.505 97.6867 528.958 97.3C529.411 96.9133 529.758 96.4533 529.998 95.92L531.358 96.58C531.158 96.9933 530.878 97.4067 530.518 97.82C530.171 98.2333 529.711 98.58 529.138 98.86C528.578 99.14 527.858 99.28 526.978 99.28ZM523.618 93.22H529.978C529.925 92.3133 529.611 91.6067 529.038 91.1C528.478 90.5933 527.758 90.34 526.878 90.34C525.985 90.34 525.251 90.5933 524.678 91.1C524.105 91.6067 523.751 92.3133 523.618 93.22ZM535.499 99L533.539 89.22H535.139L536.759 97.94H537.039L539.179 89.22H541.799L543.939 97.94H544.219L545.839 89.22H547.439L545.479 99H542.779L540.619 90.28H540.359L538.199 99H535.499ZM553.996 99.28C552.783 99.28 551.756 99 550.916 98.44C550.09 97.88 549.59 96.9933 549.416 95.78L550.916 95.44C551.023 96.08 551.223 96.5867 551.516 96.96C551.81 97.32 552.17 97.58 552.596 97.74C553.036 97.8867 553.503 97.96 553.996 97.96C554.73 97.96 555.31 97.8133 555.736 97.52C556.163 97.2267 556.376 96.8333 556.376 96.34C556.376 95.8333 556.17 95.48 555.756 95.28C555.356 95.0667 554.803 94.8933 554.096 94.76L553.276 94.62C552.65 94.5133 552.076 94.3467 551.556 94.12C551.036 93.8933 550.623 93.5867 550.316 93.2C550.01 92.8133 549.856 92.3267 549.856 91.74C549.856 90.86 550.196 90.1733 550.876 89.68C551.556 89.1867 552.456 88.94 553.576 88.94C554.683 88.94 555.576 89.1933 556.256 89.7C556.95 90.1933 557.396 90.8933 557.596 91.8L556.116 92.18C555.996 91.4733 555.71 90.98 555.256 90.7C554.803 90.4067 554.243 90.26 553.576 90.26C552.91 90.26 552.383 90.3867 551.996 90.64C551.61 90.88 551.416 91.24 551.416 91.72C551.416 92.1867 551.596 92.5333 551.956 92.76C552.33 92.9733 552.823 93.1333 553.436 93.24L554.256 93.38C554.95 93.5 555.57 93.6667 556.116 93.88C556.676 94.08 557.116 94.3733 557.436 94.76C557.77 95.1467 557.936 95.6533 557.936 96.28C557.936 97.24 557.576 97.98 556.856 98.5C556.15 99.02 555.196 99.28 553.996 99.28Z" fill="black"/>
</svg>
