<svg width="104" height="21" viewBox="0 0 104 21" fill="none" xmlns="http://www.w3.org/2000/svg">
<path d="M9.48901 0.977539C9.14844 0.977539 8.80811 0.995848 8.46948 1.03235C8.1591 1.06405 7.85253 1.11604 7.55008 1.17913C7.49155 1.19138 7.43298 1.2043 7.37445 1.21781C5.59245 1.62353 3.96529 2.53464 2.68809 3.84188C2.56932 3.96362 2.45305 4.08897 2.33935 4.21788C-1.11075 8.17872 -0.696703 14.1865 3.26417 17.6366C7.05619 20.9396 12.7641 20.7198 16.291 17.135C16.41 17.0133 16.5262 16.8879 16.6397 16.759C18.1623 15.0251 19.0013 12.796 19 10.4885C19 5.23567 14.7418 0.977499 9.48901 0.977539ZM3.11069 4.31743C3.16078 4.26544 3.21277 4.21566 3.26382 4.16526C3.32278 4.10724 3.38143 4.0489 3.44167 3.99279C3.49461 3.94333 3.54914 3.89578 3.60336 3.84759C3.66454 3.79338 3.72541 3.73916 3.78819 3.68685C3.84335 3.64025 3.9001 3.59555 3.95653 3.55053C4.01994 3.49981 4.08334 3.44908 4.14865 3.40026C4.20635 3.35682 4.265 3.31466 4.32397 3.27344C4.3896 3.22652 4.45554 3.17833 4.52243 3.13458C4.58235 3.094 4.6429 3.05469 4.70377 3.0157C4.77162 2.97226 4.83978 2.92946 4.90858 2.88888C4.97052 2.85191 5.03285 2.81553 5.09562 2.77983C5.16581 2.73988 5.23627 2.70088 5.30709 2.66284C5.37049 2.62904 5.4339 2.59595 5.4973 2.56361C5.56959 2.52715 5.6425 2.49196 5.71574 2.4574C5.77915 2.42729 5.84509 2.39717 5.9104 2.36864C5.9849 2.33693 6.06035 2.30523 6.13581 2.27353C6.20143 2.24658 6.26674 2.22026 6.333 2.1949C6.40972 2.16574 6.48739 2.13847 6.56507 2.11121C6.63133 2.08806 6.69759 2.06492 6.7648 2.04304C6.84374 2.01768 6.92331 1.99422 7.0032 1.97108C7.0701 1.95174 7.13636 1.93177 7.20357 1.91369C7.22925 1.90704 7.25493 1.90165 7.28061 1.89499C6.34219 2.80618 5.64579 3.93703 5.25446 5.18515C4.50198 4.98668 3.77352 4.70635 3.08216 4.34913C3.09262 4.33804 3.1015 4.32694 3.11069 4.31743ZM2.6548 4.82785C3.41635 5.24047 4.22391 5.56186 5.06075 5.78529C4.65051 7.21177 4.43517 8.6872 4.42066 10.1714H0.619454C0.688528 8.21419 1.40427 6.33506 2.6548 4.82785ZM2.6548 16.1491C1.40435 14.6418 0.688607 12.7627 0.619454 10.8055H4.42066C4.43517 12.2897 4.65047 13.7651 5.06075 15.1916C4.22395 15.4151 3.41639 15.7365 2.6548 16.1491ZM7.20167 19.0645C7.13763 19.0483 7.07137 19.0274 7.00542 19.0081C6.92521 18.9846 6.84469 18.9611 6.76543 18.9355C6.69854 18.9139 6.6326 18.8908 6.56665 18.8676C6.48866 18.8407 6.41067 18.8131 6.33363 18.7836C6.26769 18.7586 6.2027 18.7322 6.13739 18.7056C6.06162 18.6739 5.98585 18.6422 5.91071 18.6105C5.84604 18.582 5.78168 18.5526 5.71764 18.5224C5.64377 18.4875 5.57022 18.452 5.49572 18.4152C5.43231 18.3835 5.36891 18.3518 5.3055 18.3172C5.23385 18.2789 5.16284 18.2396 5.09182 18.199C5.02841 18.1638 4.96818 18.1277 4.90699 18.0909C4.83724 18.049 4.76877 18.0059 4.70029 17.9619C4.64005 17.9235 4.57981 17.8845 4.52053 17.8445C4.453 17.7989 4.38611 17.7513 4.31985 17.7038C4.26183 17.6623 4.20381 17.6207 4.14675 17.577C4.08112 17.5275 4.01677 17.4765 3.95273 17.4251C3.89661 17.3804 3.84081 17.336 3.78597 17.2901C3.72256 17.2374 3.66137 17.1826 3.59987 17.1281C3.54597 17.0802 3.49176 17.0329 3.43913 16.9841C3.37858 16.9277 3.31993 16.869 3.26096 16.811C3.20992 16.7606 3.15793 16.7108 3.10784 16.6592C3.09864 16.6493 3.08977 16.6392 3.08057 16.6297C3.7719 16.2723 4.50036 15.9919 5.25287 15.7934C5.64429 17.0414 6.34065 18.1722 7.27902 19.0835C7.25334 19.0769 7.22735 19.0715 7.20167 19.0645ZM9.17202 19.3403C7.81544 19.1476 6.62625 17.7317 5.87806 15.6409C6.95977 15.3986 8.06364 15.2687 9.17202 15.2531V19.3403ZM9.17202 14.6191C7.99623 14.6345 6.82539 14.7742 5.67896 15.0356C5.28089 13.6602 5.0709 12.2372 5.05473 10.8055H9.17202V14.6191ZM9.17202 10.1714H5.05473C5.07086 8.73967 5.28085 7.31667 5.67896 5.94127C6.82539 6.2027 7.99627 6.34235 9.17202 6.35785V10.1714ZM9.17202 5.72378C8.0636 5.70833 6.95977 5.57839 5.87806 5.33605C6.62625 3.24523 7.81544 1.82936 9.17202 1.63661V5.72378ZM16.3233 4.82785C17.5738 6.3351 18.2895 8.21423 18.3586 10.1714H14.5574C14.5429 8.6872 14.3276 7.21177 13.9174 5.78529C14.7542 5.56174 15.5617 5.24039 16.3233 4.82785ZM11.7739 1.91211C11.8405 1.9286 11.9067 1.94952 11.9727 1.96886C12.0529 1.99232 12.1334 2.01578 12.2127 2.04146C12.2796 2.06302 12.3455 2.08616 12.4114 2.1093C12.4894 2.13625 12.5674 2.16383 12.6445 2.19332C12.7104 2.21836 12.7754 2.24468 12.8407 2.27131C12.9165 2.30301 12.9923 2.33471 13.0674 2.36642C13.1321 2.39495 13.1964 2.42431 13.2605 2.45455C13.3343 2.48942 13.4079 2.52493 13.4824 2.56171C13.5458 2.59341 13.6092 2.62511 13.6726 2.65967C13.7443 2.69803 13.8153 2.73734 13.8863 2.77792C13.9497 2.81311 14.0099 2.84926 14.0711 2.88603C14.1409 2.92788 14.2093 2.971 14.2778 3.01506C14.3381 3.05342 14.3983 3.09242 14.4576 3.13237C14.5251 3.17802 14.5917 3.22526 14.6579 3.27281C14.7163 3.31434 14.7743 3.35619 14.8317 3.39962C14.897 3.44876 14.961 3.49981 15.0254 3.55116C15.0812 3.59555 15.1373 3.63993 15.1921 3.68622C15.2555 3.73885 15.3167 3.79369 15.3782 3.84822C15.4321 3.8961 15.4863 3.94333 15.539 3.99216C15.5995 4.04859 15.6582 4.10724 15.7171 4.16526C15.7682 4.21566 15.8202 4.26544 15.8703 4.31711C15.8795 4.32694 15.8883 4.33709 15.8975 4.3466C15.2062 4.70397 14.4777 4.98443 13.7252 5.18293C13.3331 3.93469 12.6358 2.80396 11.6965 1.89309C11.7222 1.89975 11.7482 1.90513 11.7739 1.91211ZM9.80608 1.63661C11.1627 1.82936 12.3518 3.24523 13.1 5.33605C12.0183 5.57827 10.9145 5.70821 9.80608 5.72378V1.63661ZM9.80608 6.35785C10.9819 6.34239 12.1527 6.20274 13.2991 5.94127C13.6972 7.31667 13.9072 8.73967 13.9234 10.1714H9.80608V6.35785ZM9.80608 10.8055H13.9234C13.9072 12.2372 13.6973 13.6602 13.2991 15.0356C12.1527 14.7742 10.9819 14.6346 9.80608 14.6191V10.8055ZM9.80608 19.3403V15.2531C10.9145 15.2686 12.0183 15.3985 13.1 15.6409C12.3518 17.7317 11.1627 19.1476 9.80608 19.3403ZM15.8674 16.6595C15.8173 16.7112 15.7656 16.7609 15.7146 16.8113C15.6556 16.8694 15.5967 16.928 15.5361 16.9844C15.4835 17.0336 15.4293 17.0795 15.3754 17.1287C15.3139 17.1832 15.2527 17.2377 15.1899 17.2904C15.1344 17.3367 15.078 17.3814 15.0216 17.4264C14.9582 17.4771 14.8948 17.5278 14.8295 17.5767C14.7718 17.6201 14.7131 17.6623 14.6541 17.7035C14.5885 17.7504 14.5226 17.7986 14.4557 17.8423C14.3958 17.8829 14.3352 17.9222 14.2743 17.9609C14.2065 18.0047 14.1381 18.0469 14.0692 18.0877C14.0058 18.1248 13.9452 18.1609 13.8828 18.1968C13.8126 18.2367 13.742 18.2757 13.671 18.3138C13.6076 18.3476 13.5442 18.3806 13.4808 18.413C13.4085 18.4494 13.3356 18.4846 13.2624 18.5192C13.199 18.5493 13.133 18.5794 13.0677 18.608C12.9932 18.6397 12.9177 18.6714 12.8423 18.7031C12.7767 18.7297 12.7114 18.7563 12.6454 18.7814C12.5681 18.8109 12.4904 18.8384 12.4124 18.8654C12.3465 18.8885 12.2805 18.9117 12.2136 18.9332C12.1344 18.9589 12.0551 18.9824 11.9743 19.0055C11.908 19.0252 11.8414 19.0448 11.7745 19.0629C11.7489 19.0696 11.7232 19.0749 11.6975 19.0816C12.6359 18.1704 13.3323 17.0396 13.7236 15.7915C14.4761 15.9899 15.2046 16.2702 15.8959 16.6275C15.8855 16.6389 15.8766 16.65 15.8674 16.6595ZM16.3233 16.1491C15.5618 15.7364 14.7542 15.4151 13.9174 15.1916C14.3276 13.7651 14.5429 12.2897 14.5574 10.8055H18.3586C18.2896 12.7627 17.5738 14.6419 16.3233 16.1491Z" fill="white"/>
<path d="M26.4091 16.4766V4.8402H33.4318V6.0902H27.8182V10.022H33.0682V11.272H27.8182V15.2266H33.5227V16.4766H26.4091ZM36.8107 11.2266V16.4766H35.4698V7.74929H36.7652V9.11293H36.8789C37.0834 8.66974 37.394 8.31368 37.8107 8.04474C38.2273 7.77202 38.7652 7.63565 39.4243 7.63565C40.0152 7.63565 40.5323 7.75687 40.9755 7.99929C41.4186 8.23793 41.7633 8.60156 42.0095 9.0902C42.2558 9.57505 42.3789 10.1887 42.3789 10.9311V16.4766H41.038V11.022C41.038 10.3364 40.8599 9.80232 40.5039 9.41974C40.1478 9.03338 39.6592 8.8402 39.038 8.8402C38.6099 8.8402 38.2273 8.933 37.8902 9.11861C37.5569 9.30421 37.2936 9.57505 37.1005 9.93111C36.9073 10.2872 36.8107 10.719 36.8107 11.2266ZM48.0319 19.9311C47.3841 19.9311 46.8273 19.8478 46.3614 19.6811C45.8955 19.5182 45.5073 19.3023 45.1966 19.0334C44.8898 18.7682 44.6455 18.4841 44.4637 18.1811L45.5319 17.4311C45.6531 17.5902 45.8065 17.772 45.9921 17.9766C46.1777 18.1849 46.4315 18.3648 46.7535 18.5163C47.0792 18.6716 47.5054 18.7493 48.0319 18.7493C48.7364 18.7493 49.3179 18.5788 49.7762 18.2379C50.2345 17.897 50.4637 17.3629 50.4637 16.6357V14.8629H50.3501C50.2516 15.022 50.1114 15.219 49.9296 15.4538C49.7516 15.6849 49.494 15.8913 49.1569 16.0732C48.8235 16.2512 48.3728 16.3402 47.8046 16.3402C47.1001 16.3402 46.4675 16.1735 45.9069 15.8402C45.3501 15.5069 44.9088 15.022 44.583 14.3857C44.261 13.7493 44.1001 12.9766 44.1001 12.0675C44.1001 11.1735 44.2573 10.3951 44.5716 9.73224C44.886 9.06558 45.3235 8.55043 45.8841 8.18679C46.4448 7.81937 47.0925 7.63565 47.8273 7.63565C48.3955 7.63565 48.8463 7.73035 49.1796 7.91974C49.5167 8.10535 49.7743 8.31747 49.9523 8.55611C50.1341 8.79096 50.2743 8.98414 50.3728 9.13565H50.5091V7.74929H51.8046V16.7266C51.8046 17.4766 51.6341 18.0864 51.2932 18.5561C50.9561 19.0296 50.5016 19.3762 49.9296 19.5959C49.3614 19.8194 48.7288 19.9311 48.0319 19.9311ZM47.9864 15.1357C48.5243 15.1357 48.9788 15.0125 49.3501 14.7663C49.7213 14.5201 50.0035 14.166 50.1966 13.7038C50.3898 13.2417 50.4864 12.6887 50.4864 12.0447C50.4864 11.416 50.3917 10.861 50.2023 10.38C50.0129 9.89891 49.7326 9.52202 49.3614 9.24929C48.9902 8.97656 48.5319 8.8402 47.9864 8.8402C47.4182 8.8402 46.9448 8.98414 46.566 9.27202C46.191 9.5599 45.9088 9.94626 45.7194 10.4311C45.5338 10.916 45.441 11.4538 45.441 12.0447C45.441 12.6508 45.5357 13.1868 45.7251 13.6527C45.9182 14.1148 46.2023 14.4785 46.5773 14.7436C46.9561 15.005 47.4258 15.1357 47.9864 15.1357ZM55.2801 4.8402V16.4766H53.9391V4.8402H55.2801ZM57.416 16.4766V7.74929H58.7569V16.4766H57.416ZM58.0978 6.29474C57.8365 6.29474 57.6111 6.20573 57.4217 6.0277C57.2361 5.84967 57.1433 5.63565 57.1433 5.38565C57.1433 5.13565 57.2361 4.92164 57.4217 4.74361C57.6111 4.56558 57.8365 4.47656 58.0978 4.47656C58.3592 4.47656 58.5827 4.56558 58.7683 4.74361C58.9577 4.92164 59.0524 5.13565 59.0524 5.38565C59.0524 5.63565 58.9577 5.84967 58.7683 6.0277C58.5827 6.20573 58.3592 6.29474 58.0978 6.29474ZM67.0747 9.70384L65.8702 10.0447C65.7944 9.84399 65.6827 9.64891 65.5349 9.45952C65.391 9.26634 65.194 9.10724 64.944 8.98224C64.694 8.85724 64.374 8.79474 63.9838 8.79474C63.4497 8.79474 63.0046 8.91785 62.6486 9.16406C62.2963 9.40649 62.1202 9.7152 62.1202 10.0902C62.1202 10.4235 62.2414 10.6868 62.4838 10.88C62.7262 11.0732 63.105 11.2341 63.6202 11.3629L64.9156 11.6811C65.6959 11.8705 66.2774 12.1603 66.6599 12.5504C67.0425 12.9368 67.2338 13.4349 67.2338 14.0447C67.2338 14.5447 67.0899 14.9917 66.802 15.3857C66.5179 15.7796 66.1202 16.0902 65.6088 16.3175C65.0974 16.5447 64.5027 16.6584 63.8247 16.6584C62.9346 16.6584 62.1978 16.4652 61.6145 16.0788C61.0312 15.6925 60.6618 15.1281 60.5065 14.3857L61.7793 14.0675C61.9005 14.5372 62.1296 14.8894 62.4668 15.1243C62.8077 15.3591 63.2527 15.4766 63.802 15.4766C64.427 15.4766 64.9232 15.344 65.2906 15.0788C65.6618 14.8099 65.8474 14.4879 65.8474 14.1129C65.8474 13.8099 65.7414 13.5561 65.5293 13.3516C65.3171 13.1432 64.9914 12.9879 64.552 12.8857L63.0974 12.5447C62.2982 12.3554 61.7111 12.0618 61.3361 11.6641C60.9649 11.2625 60.7793 10.7607 60.7793 10.1584C60.7793 9.66596 60.9175 9.23035 61.194 8.85156C61.4743 8.47277 61.855 8.17543 62.3361 7.95952C62.8209 7.74361 63.3702 7.63565 63.9838 7.63565C64.8474 7.63565 65.5255 7.82505 66.0179 8.20383C66.5141 8.58262 66.8664 9.08262 67.0747 9.70384ZM70.2732 11.2266V16.4766H68.9323V4.8402H70.2732V9.11293H70.3868C70.5914 8.66217 70.8982 8.30421 71.3073 8.03906C71.7202 7.77012 72.2694 7.63565 72.955 7.63565C73.5497 7.63565 74.0705 7.75497 74.5175 7.99361C74.9645 8.22846 75.3111 8.5902 75.5573 9.07884C75.8073 9.56368 75.9323 10.1811 75.9323 10.9311V16.4766H74.5914V11.022C74.5914 10.3288 74.4114 9.79285 74.0516 9.41406C73.6955 9.03149 73.2012 8.8402 72.5686 8.8402C72.1292 8.8402 71.7353 8.933 71.3868 9.11861C71.0421 9.30421 70.7694 9.57505 70.5686 9.93111C70.3717 10.2872 70.2732 10.719 70.2732 11.2266Z" fill="white"/>
<path d="M88 7.47656L94 13.4766L100 7.47656" stroke="white" stroke-linecap="round" stroke-linejoin="round"/>
</svg>
